<?xml version="1.0" encoding="utf-8"?>
<!-- Generator: Adobe Illustrator 19.0.0, SVG Export Plug-In . SVG Version: 6.00 Build 0)  -->
<svg version="1.1" id="Camada_1" xmlns="http://www.w3.org/2000/svg" xmlns:xlink="http://www.w3.org/1999/xlink" x="0px" y="0px"
	 viewBox="0 0 670.5 153.4" style="enable-background:new 0 0 670.5 153.4;" xml:space="preserve">
<style type="text/css">
	.st0{fill:#E6E6E6;}
</style>
<path id="XMLID_328_" class="st0" d="M32.9,123.1c1.7-1.8,3-4,5-5.1c3.1-1.7,7.1,0.1,8.8,3.3c1.8,3.3,0.8,7.6-2.4,9.9
	c-7.5,5.6-17.8,1-19.2-8.7c-1.1-7.7,1.9-14.4,8-17.7c7.3-4,16.8-3,22.8,2.4c14.3,12.7,10.6,35.3-7.1,43.2
	c-14.3,6.4-29.9,2.6-39.7-9.6c-12.1-15-12.4-37.9-0.5-51.7c7.5-8.7,17.8-12.6,28.6-14.1c10.5-1.4,21.1-1.4,31.7-1.7
	c11.9-0.4,21.5-4.9,28.5-14.6c8.2-11.2,8-24.8-0.4-35.8c-7.7-10-22.9-12.1-32.8-4.5c-7.6,5.8-9.7,16.5-4.9,24.6
	c4.2,7.1,14.5,8.3,20.1,2.2c2.8-3,3.2-6.6,1.6-10.3c-1.3-2.9-3-5.3-7.1-5.3c0.8,1.1,1.4,1.8,1.9,2.6c2.2,3.6,1,8.1-2.5,9.9
	c-3.6,1.9-7.9,0.3-9.5-3.6c-1.8-4.1-1.1-8.1,1.8-11.4c3.2-3.7,7.5-5.2,12.4-3.9c10.5,2.8,15.6,15.3,10.4,25
	c-7.6,14.1-26.9,15.5-37.9,2.8C39,37.6,41.8,18,56.9,7c18.4-13.5,46.3-6.7,56.4,13.9c7.4,15.1,7.2,30.2-1.4,44.9
	c-4.2,7.1-8.4,14.2-11.9,21.7c-6.3,13.4-5.2,26.4,4,38.3c11,14.2,33.1,14,42.8-0.2c5.7-8.4,4.4-21.3-3.2-27.7
	c-4.8-4.1-10.5-5.6-16.5-3c-5.2,2.2-7.5,6.6-7.6,12.1c-0.1,4.2,2.6,7.5,7.1,8.8c3.3,1,6.5,1,9.3-2.8c-1.5,0.2-2.4,0.4-3.3,0.5
	c-3.9,0.4-7.2-2.6-7.5-6.5c-0.3-4,2.5-7.2,6.5-7.4c4.7-0.3,8.5,2.1,10.4,6.2c2.3,5.1,1.1,10.8-2.9,14.6c-8.1,7.6-22.5,4.6-27.1-5.9
	c-3.8-8.6-3.7-17.2,2.5-24.8c6.1-7.4,14.5-9.8,23.7-8c28.6,5.4,31.4,36.6,19.6,52.4c-16.2,21.7-45.1,23.3-63.6,3.6
	c-7.8-8.4-13.4-18.3-18.9-28.2C69.5,99.4,61,92.7,49.5,90.1c-15.8-3.5-32.8,7.6-34.7,22.6c-1.5,12,5.4,23.5,15.9,26.1
	c6.8,1.7,13.3,0.3,18.8-4.2c4.5-3.8,5.3-10.4,2.3-16.3c-2.3-4.4-7.7-6.6-13-5.4C33.9,114.1,31.3,118.6,32.9,123.1z"/>
<g id="XMLID_301_">
	<path id="XMLID_322_" class="st0" d="M226,139.7c-1.8,0-2.7-1.2-2.7-3.7V47.9c0-3.2-0.6-4.8-1.7-4.8c-6.8,0-11.8,5.8-15,17.4
		c-1,4-1.8,8.5-2.3,13.5c-0.5,5.1-0.8,10.9-1,17.5c0,0.9-0.4,1.6-1.2,2.3c-0.8,0.7-1.6,1.1-2.3,1.1c-0.7,0-1.3-0.4-2-1.2
		s-1-1.6-1-2.3c-0.3-8.9-1-17.5-2.3-25.9c-1.2-8.4-2.9-16.9-5.1-25.5c0-3.3,0.8-5,2.3-5h81.6c1.5,0,2.3,1.7,2.3,5
		c-2.2,8.9-3.8,17.5-4.9,25.9c-1.1,8.4-1.9,16.9-2.3,25.5c0,1-0.4,1.9-1.1,2.5c-0.8,0.7-1.4,1-1.8,1c-0.7,0-1.4-0.4-2.3-1.1
		c-0.9-0.7-1.3-1.5-1.3-2.3c-0.1-6.4-0.4-12.2-0.9-17.3c-0.5-5.1-1.3-9.7-2.3-13.7c-3.3-11.6-8.1-17.4-14.4-17.4
		c-1.4,0-2.1,1.6-2.1,4.8V136c0,2.5-0.9,3.7-2.5,3.7H226z"/>
	<path id="XMLID_316_" class="st0" d="M285.2,136.1V39.8c0-1.1,0.3-2.2,0.9-3.3c0.6-1,1.3-1.6,2.1-1.6h55c5.3,0,7.9,0.7,7.9,2.1
		l-26.3,65c-0.1,0.3,0.3,1.2,1.2,2.8c0.9,1.6,2,3.6,3.4,6c1.4,2.4,2.9,5,4.5,7.9c1.7,2.8,3.2,5.6,4.6,8.2c1.4,2.6,2.6,5,3.5,7.2
		c0.9,2.1,1.4,3.7,1.4,4.6c0,0.6-0.3,0.8-0.9,0.8h-1.4h-14c-0.2,0.1-0.5,0.1-0.9,0.1h-0.6h-1c-0.5,0-0.7,0-0.6-0.1l-13.7-44.5
		c-0.5-1.1-1.1-1.8-1.8-2c-0.8-0.2-1.7-0.3-2.7-0.3c-0.5,0-1,0.3-1.5,0.8c-0.5,0.6-0.8,1.4-0.8,2.4v39.9c0,2.5-0.7,3.7-2.1,3.7h-14
		C285.9,139.8,285.2,138.6,285.2,136.1z M311.1,84.6c3.2-7.2,5.8-13,7.6-17.6c1.9-4.5,3.3-8.1,4.2-10.8c0.9-2.7,1.6-4.7,1.8-6.2
		c0.3-1.4,0.4-2.7,0.4-3.8c0-2.9-2.7-4.4-8.2-4.4h-9.6c-2.5,0-3.7,2.4-3.7,7.2v34.3c0,1.2,0.3,2.2,0.8,3c0.5,0.8,1.1,1.2,1.8,1.2
		C308.7,87.5,310.3,86.6,311.1,84.6z"/>
	<path id="XMLID_314_" class="st0" d="M377.8,37.5v98.3c0,2.5-0.7,3.8-2,3.8h-12.6c-1.7,0-2.5-1.5-2.5-4.4V37c0-0.7,0.3-1.2,0.8-1.6
		c0.5-0.4,1-0.6,1.5-0.6h12.9c0.5,0,0.9,0.2,1.3,0.7C377.6,36,377.8,36.7,377.8,37.5z"/>
	<path id="XMLID_311_" class="st0" d="M440.5,70.8c0-3,0-5.8-0.1-8.2c0-2.5-0.3-4.5-0.8-6.2c-0.3-1.4-0.8-3-1.5-4.7
		c-0.7-1.7-1.7-3.4-2.8-5c-1.2-1.6-2.7-2.9-4.5-3.9c-1.8-1-4-1.6-6.6-1.6c-4.4,0-8,3.2-10.8,9.6c-1,2.2-1.8,4.5-2.2,7
		c-0.4,2.5-0.6,5.4-0.6,8.7c0,2.8,0.4,5.7,1.3,8.6c0.9,2.9,2.2,4.9,4.1,6c1.3,1.1,2.5,1.9,3.6,2.4c1.1,0.5,2.2,0.7,3.3,0.7
		c2.8,0,5.7-0.4,8.5-1.3c1.3-0.9,4.3-1.4,9.1-1.4c2.4,0,4.7,0.5,7,1.6c2.3,1.1,4.4,2.8,6.2,5c1.8,2.3,3.3,5.1,4.4,8.5
		c1.1,3.4,1.6,7.4,1.6,11.9c0,1.8-0.2,3.9-0.6,6.4c-0.4,2.5-1,4.9-1.8,7.4c-0.8,2.5-1.7,4.8-2.7,7.1c-1,2.3-2.2,4.1-3.5,5.5
		c-4.5,4.8-10.4,7.2-17.7,7.2c-0.8,0-1.7-0.2-2.8-0.6c-1.1-0.4-2.2-0.9-3.3-1.5c-1.1-0.6-2.2-1.3-3.3-2.2c-1-0.9-1.9-1.7-2.5-2.7
		c-3.5-4.9-6.6-7.4-9.2-7.4c-1,0-2.1,0.8-3.2,2.3c-1.1,1.6-2,3.6-2.8,6c-0.5,1.6-1.7,3-3.6,4.2c-1.9,1.2-3.8,1.8-5.7,1.8
		c-6.4,0-9.6-4-9.6-11.9c0-1.8,0.4-3.8,1.3-6.2c0.8-2.3,2-4.5,3.4-6.5c1.4-2,3.1-3.8,5-5.2c1.9-1.4,3.9-2.1,6.1-2.1
		c3.1,0,7.4,2.8,12.7,8.5c2.4,2.5,4.3,4.6,5.8,6.2s2.9,2.8,4.1,3.7c1.2,0.9,2.5,1.5,3.7,1.8c1.2,0.3,2.8,0.4,4.8,0.4
		c0.9-0.1,1.9-0.6,3-1.5c1-0.9,2-2.2,2.8-3.9c0.8-1.7,1.6-3.8,2.1-6.3c0.6-2.5,0.8-5.5,0.8-8.9c0-2.9-0.2-5.6-0.5-8.1
		c-0.3-2.5-0.8-4.7-1.6-6.5c-0.7-1.8-1.6-3.3-2.5-4.4c-1-1.1-2.1-1.6-3.3-1.6c-0.8,0-1.8,0.1-3.2,0.3c-1.4,0.2-2.8,0.4-4.2,0.6
		c-1.5,0.2-2.8,0.4-4,0.6c-1.2,0.2-1.9,0.3-2.1,0.3c-2.2,0.1-4.5-0.1-7.1-0.7c-2.5-0.6-5.6-1.6-9.1-3c-3.3-1.3-6.1-3.8-8.5-7.3
		c-2.4-3.5-3.5-8.8-3.5-15.8c0-9.9,3.2-17.9,9.6-24.1c6.3-5.6,12.7-8.4,19-8.4c5,0,9.3,0.4,12.9,1.3c3.6,0.9,6.9,2.9,10.1,5.9
		c3.9,3.3,6.8,6.9,8.8,10.8c2,3.9,3,7.5,3,10.9c0,1.6-0.1,3.2-0.3,4.8c-0.2,1.6-0.5,3.2-0.9,4.8H440.5z"/>
	<path id="XMLID_309_" class="st0" d="M506.3,54.4c-0.1-1.9,0-3.8,0.1-5.7c0.2-1.9,0.5-3.8,0.8-5.7c0.9-3.4,2-5.9,3.4-7.6
		c0.8-0.8,1.8-1.5,3.3-2.1c1.4-0.5,2.8-0.8,4.2-0.8h4.8c3,0,6,1.2,9.1,3.7c1.1,1.1,2.2,2.3,3.1,3.5c0.9,1.2,1.8,2.7,2.7,4.5
		c-0.7,2.1-1.7,3.5-3.3,4.2c-2.3,0.9-4.1,2.8-5.4,5.8c-1.4,3.3-3.5,5-6.4,5c-0.7,0-1.3-0.1-2.1-0.3c-0.7-0.2-1.6-0.5-2.6-1
		c-0.8-0.3-2-0.4-3.4-0.4c-0.6,0-1.1,0.4-1.6,1.1c-0.5,0.7-1,1.5-1.5,2.5c-0.5,0.9-0.9,1.9-1.3,2.8c-0.4,0.9-0.8,1.7-1.1,2.1
		l-5.5,10.9c-1,2.7-1.8,4.4-2.4,5c3.6,0.4,7.6,2.8,12.2,7.4c2,2,3.7,3.8,5.2,5.5c1.5,1.7,2.7,3.4,3.8,5c1,1.6,2,3.2,2.8,4.9
		c0.8,1.7,1.5,3.4,2.2,5.3c1.3,3.8,2.4,7.6,3.3,11.4s1.3,7.1,1.3,9.8c0,5.6-0.8,8.4-2.3,8.4h-15.3c-1.3,0-2.2-0.7-2.6-2.2
		c-0.4-1.5-0.6-3.8-0.6-7.2c0-3.5-0.1-7-0.4-10.6c-0.3-3.5-0.7-7-1.3-10.3c-0.6-3.3-1.3-6.4-2.3-9.3c-0.9-2.9-2.1-5.6-3.4-8.1
		c-2.9-5.5-6.7-8.2-11.2-8.2c-2.2,0-3.5,0.3-4.1,1c-0.6,0.7-0.8,1.7-0.8,3.3v48.7c0,1.9-0.6,2.8-1.8,2.8h-14.6c-1.3,0-2-0.9-2-2.8
		V37.1c0-1.5,0.4-2.3,1.3-2.3h15.7c0.8,0,1.3,0.6,1.3,1.7v39.5c0,2,1.8,3,5.5,3c2.7,0,4.7-1.3,5.9-4l6.4-12.7
		C506.3,60.3,506.5,57.6,506.3,54.4z"/>
	<path id="XMLID_307_" class="st0" d="M612.4,117.6c0.1,2.8-0.8,5.8-2.8,8.9c-1.9,3.1-4.4,5.9-7.4,8.4c-3,2.5-6.2,4.5-9.8,6.1
		c-3.5,1.6-6.9,2.3-10,2.2c-5.5,0.1-10.9-1.1-16.3-3.7c-5.4-2.5-10.2-6.1-14.4-10.8c-4.2-4.6-7.7-10.2-10.3-16.6
		c-2.6-6.5-3.8-13.6-3.6-21.3c-0.2-7.4,0.9-14.5,3.3-21.4c2.4-6.9,5.6-13,9.6-18.3c4.1-5.3,8.8-9.5,14.2-12.6
		c5.4-3.1,11.2-4.6,17.2-4.5c2.6,0,5.6,0.7,8.9,2.1c3.3,1.4,6.3,3.3,9.2,5.6c2.9,2.3,5.3,5,7.2,7.9c1.9,3,2.9,6,2.8,9.1
		c0,6.3-2.4,9.5-7.1,9.5c-2.9,0-5.4-0.9-7.4-2.6c-2-1.7-3.5-4.2-4.3-7.4c-1-4.5-2.3-8-3.9-10.4c-1.6-2.4-3.7-3.6-6.4-3.6
		c-2.5,0-5.1,0.8-7.6,2.3c-2.5,1.6-4.9,3.5-6.9,5.9c-2.1,2.4-3.8,5.1-5.2,8.1c-1.4,3-2.1,5.9-2.2,8.8l-1,11.6c3.2,0,5.9-0.1,8.1-0.2
		c2.2-0.1,4.6-0.4,7.4-0.9c2.8-0.9,4.7-1.3,5.5-1.3c3,0,5.3,0.3,6.9,0.8c1.6,0.5,3,1.4,4.5,2.8c0.9,1.2,1.9,2.2,2.8,3
		c0.9,0.8,1.8,1.4,2.7,1.9c0.9,0.5,1.9,0.9,2.9,1.2c1,0.3,2.2,0.6,3.5,1c-1.4,4.4-3.3,7.5-5.7,9.2c-2.4,1.7-6,2.5-10.7,2.5
		c-3,0-5.7-0.7-8.1-2.1c-2.4-1.4-5-3.4-7.9-6.2l-12.3-0.1c0.2,4.6,0.5,8.8,1.1,12.5c0.5,3.7,1.3,7,2.5,9.9
		c5.5,12.8,12.3,19.3,20.4,19.3c1.3,0,2.7-0.4,4.1-1.1c1.4-0.7,2.7-1.6,4-2.8s2.3-2.4,3.3-3.9c0.9-1.5,1.7-2.9,2.1-4.3
		c1.4-4.8,2.7-8.3,3.8-10.5c1.1-2.2,2.6-3.3,4.5-3.3c3.4,0,5.8,0.6,7.2,1.8C611.7,111.4,612.4,113.9,612.4,117.6z"/>
	<path id="XMLID_302_" class="st0" d="M637.7,108.8c0,4.5,0.4,8,1.3,10.6c0.9,2.5,1.8,3.8,2.8,3.8c2,0,4-1.2,6.1-3.5l6.8-8.9
		c0.9-1,2-1.6,3.4-1.6c1.1,0,2.4,0.6,3.7,1.7l5.9,5.8c1.9,1.6,2.8,3.4,2.8,5.5c0,1.4-0.9,3-2.5,4.7l-11.9,13.6
		c-0.7,0.5-1.2,0.9-1.6,1.2c-0.4,0.3-0.8,0.5-1.1,0.5c-0.5,0-1-0.2-1.7-0.7c-0.7-0.5-1.5-1.1-2.5-1.8l-24.4-17.7
		c-2.6-1.6-4-4.5-4-8.6V58.8c0-1,0.2-2,0.6-2.8c0.4-0.9,0.8-1.8,1.3-2.8l11.2-16.9c0.5-0.7,1-1.2,1.6-1.6c0.6-0.4,1.4-0.6,2.3-0.6
		c1.9,0,3.5,0.6,4.8,1.8l5,3.5c1,0.7,2,1.7,2.8,3c0.8,1.4,1.2,2.8,1.2,4.2c0-1-0.2-1.5-0.7-1.3c-0.5,0.2-1,0.7-1.7,1.6
		c-0.7,0.9-1.3,1.9-2.1,3c-0.7,1.2-1.3,2.2-1.8,3.2c-0.5,0.9-0.8,1.6-0.8,2.1c-0.1,0.4,0.1,0.3,0.7-0.5l-5.2,7.5
		c-1.5,1.8-2.3,5.1-2.3,9.9V108.8z"/>
</g>
<g id="XMLID_272_">
	<path id="XMLID_273_" class="st0" d="M191.9,26.6V11.1h6.9c1.4,0,2.4,0.1,3.1,0.4c0.7,0.3,1.3,0.8,1.7,1.5c0.4,0.7,0.6,1.5,0.6,2.3
		c0,1.1-0.4,2-1.1,2.8c-0.7,0.8-1.8,1.2-3.3,1.4c0.5,0.3,1,0.5,1.2,0.8c0.6,0.5,1.2,1.2,1.7,2.1l2.7,4.2H203l-2-3.2
		c-0.6-0.9-1.1-1.6-1.5-2.1c-0.4-0.5-0.7-0.8-1-1c-0.3-0.2-0.6-0.3-0.9-0.4c-0.2,0-0.6-0.1-1.1-0.1H194v6.9H191.9z M194,17.9h4.4
		c0.9,0,1.7-0.1,2.2-0.3c0.5-0.2,0.9-0.5,1.2-0.9c0.3-0.4,0.4-0.9,0.4-1.4c0-0.7-0.3-1.3-0.8-1.8c-0.5-0.5-1.4-0.7-2.5-0.7H194V17.9
		z"/>
	<path id="XMLID_276_" class="st0" d="M206.3,19c0-2.6,0.7-4.6,2.1-6c1.4-1.5,3.2-2.2,5.3-2.2c1.4,0,2.7,0.3,3.9,1
		c1.1,0.7,2,1.6,2.6,2.9c0.6,1.2,0.9,2.6,0.9,4.2c0,1.6-0.3,3-1,4.2s-1.5,2.2-2.7,2.8c-1.2,0.6-2.4,1-3.8,1c-1.5,0-2.8-0.4-3.9-1.1
		c-1.1-0.7-2-1.7-2.6-2.9C206.6,21.7,206.3,20.4,206.3,19z M208.4,19c0,1.9,0.5,3.3,1.5,4.4c1,1.1,2.3,1.6,3.8,1.6
		c1.5,0,2.8-0.5,3.8-1.6c1-1.1,1.5-2.6,1.5-4.6c0-1.3-0.2-2.4-0.6-3.3c-0.4-0.9-1-1.7-1.9-2.2c-0.8-0.5-1.7-0.8-2.8-0.8
		c-1.5,0-2.7,0.5-3.7,1.5C208.9,15,208.4,16.7,208.4,19z"/>
	<path id="XMLID_279_" class="st0" d="M223,26.6V11.1h2v13.7h7.6v1.8H223z"/>
	<path id="XMLID_281_" class="st0" d="M234.6,26.6V11.1h11.2v1.8h-9.1v4.7h8.6v1.8h-8.6v5.3h9.5v1.8H234.6z"/>
	<path id="XMLID_283_" class="st0" d="M247.4,21.9V20h5.8v1.9H247.4z"/>
	<path id="XMLID_285_" class="st0" d="M255,26.6V11.1h5.8c1,0,1.8,0,2.4,0.1c0.8,0.1,1.4,0.4,1.9,0.7c0.5,0.4,0.9,0.9,1.2,1.5
		s0.5,1.3,0.5,2.1c0,1.3-0.4,2.4-1.3,3.3s-2.4,1.4-4.5,1.4h-4v6.3H255z M257,18.4h4c1.3,0,2.3-0.2,2.8-0.7c0.6-0.5,0.8-1.2,0.8-2.1
		c0-0.6-0.2-1.2-0.5-1.7s-0.8-0.8-1.3-0.9c-0.3-0.1-1-0.1-1.9-0.1h-4V18.4z"/>
	<path id="XMLID_290_" class="st0" d="M268.7,26.6V11.1h2v13.7h7.6v1.8H268.7z"/>
	<path id="XMLID_292_" class="st0" d="M278.5,26.6l5.9-15.5h2.2l6.3,15.5h-2.3l-1.8-4.7h-6.5l-1.7,4.7H278.5z M283,20.2h5.3
		l-1.6-4.3c-0.5-1.3-0.9-2.4-1.1-3.2c-0.2,1-0.5,2-0.8,3L283,20.2z"/>
	<path id="XMLID_329_" class="st0" d="M296.8,26.6V20l-6-8.9h2.5l3.1,4.7c0.6,0.9,1.1,1.7,1.6,2.6c0.5-0.8,1-1.7,1.7-2.7l3-4.6h2.4
		l-6.2,8.9v6.6H296.8z"/>
	<path id="XMLID_331_" class="st0" d="M306.6,26.6V11.1h2v15.5H306.6z"/>
	<path id="XMLID_333_" class="st0" d="M311.7,26.6V11.1h2.1l8.1,12.2V11.1h2v15.5h-2.1l-8.1-12.2v12.2H311.7z"/>
	<path id="XMLID_335_" class="st0" d="M334,20.5v-1.8l6.6,0v5.7c-1,0.8-2,1.4-3.1,1.8c-1.1,0.4-2.2,0.6-3.3,0.6
		c-1.5,0-2.9-0.3-4.1-1c-1.2-0.7-2.2-1.6-2.8-2.8c-0.6-1.2-1-2.6-1-4.1c0-1.5,0.3-2.9,0.9-4.2s1.5-2.3,2.7-2.9c1.2-0.6,2.5-1,4.1-1
		c1.1,0,2.1,0.2,3,0.5s1.6,0.9,2.1,1.5c0.5,0.6,0.9,1.5,1.2,2.5l-1.8,0.5c-0.2-0.8-0.5-1.4-0.9-1.9s-0.8-0.8-1.5-1.1
		c-0.6-0.3-1.4-0.4-2.1-0.4c-0.9,0-1.7,0.1-2.4,0.4c-0.7,0.3-1.2,0.7-1.7,1.1c-0.4,0.5-0.7,1-1,1.5c-0.4,1-0.6,2-0.6,3.1
		c0,1.4,0.2,2.5,0.7,3.5s1.2,1.6,2.1,2.1C332,24.7,333,25,334,25c0.9,0,1.8-0.2,2.6-0.5c0.8-0.3,1.5-0.7,1.9-1.1v-2.9H334z"/>
	<path id="XMLID_337_" class="st0" d="M355.6,20.5v-1.8l6.6,0v5.7c-1,0.8-2,1.4-3.1,1.8c-1.1,0.4-2.2,0.6-3.3,0.6
		c-1.5,0-2.9-0.3-4.1-1c-1.2-0.7-2.2-1.6-2.8-2.8s-1-2.6-1-4.1c0-1.5,0.3-2.9,0.9-4.2c0.6-1.3,1.5-2.3,2.7-2.9c1.2-0.6,2.5-1,4.1-1
		c1.1,0,2.1,0.2,3,0.5c0.9,0.4,1.6,0.9,2.1,1.5c0.5,0.6,0.9,1.5,1.2,2.5l-1.8,0.5c-0.2-0.8-0.5-1.4-0.9-1.9s-0.8-0.8-1.5-1.1
		c-0.6-0.3-1.4-0.4-2.1-0.4c-0.9,0-1.7,0.1-2.4,0.4c-0.7,0.3-1.2,0.7-1.7,1.1s-0.7,1-1,1.5c-0.4,1-0.6,2-0.6,3.1
		c0,1.4,0.2,2.5,0.7,3.5c0.5,0.9,1.2,1.6,2.1,2.1c0.9,0.5,1.9,0.7,2.9,0.7c0.9,0,1.8-0.2,2.6-0.5c0.8-0.3,1.5-0.7,1.9-1.1v-2.9
		H355.6z"/>
	<path id="XMLID_339_" class="st0" d="M362.9,26.6l5.9-15.5h2.2l6.3,15.5H375l-1.8-4.7h-6.5l-1.7,4.7H362.9z M367.3,20.2h5.3
		l-1.6-4.3c-0.5-1.3-0.9-2.4-1.1-3.2c-0.2,1-0.5,2-0.8,3L367.3,20.2z"/>
	<path id="XMLID_342_" class="st0" d="M378.3,26.6V11.1h3.1l3.7,11c0.3,1,0.6,1.8,0.7,2.3c0.2-0.6,0.5-1.4,0.8-2.5l3.7-10.8h2.8
		v15.5h-2v-13l-4.5,13h-1.8l-4.5-13.2v13.2H378.3z"/>
	<path id="XMLID_344_" class="st0" d="M395.9,26.6V11.1h11.2v1.8h-9.2v4.7h8.6v1.8h-8.6v5.3h9.5v1.8H395.9z"/>
</g>
</svg>
